<svg xmlns="http://www.w3.org/2000/svg" xmlns:xlink="http://www.w3.org/1999/xlink" width="1920" height="1080" viewBox="0 0 1920 1080">
  <defs>
    <clipPath id="clip-Web_1920_6">
      <rect width="1920" height="1080"/>
    </clipPath>
  </defs>
  <g id="Web_1920_6" data-name="Web 1920 – 6" clip-path="url(#clip-Web_1920_6)">
    <rect width="1920" height="1080" fill="#fff"/>
    <path id="Path_207" data-name="Path 207" d="M5707.7,887.784s351.552,386.344,243.935,508.4-516.568,173.5-803.545-60.524-975.729,177.536-1076.174-173.5,172.189-464.016,172.189-464.016S5305.931,68.7,4875.463,597.27,5707.7,887.784,5707.7,887.784Z" transform="translate(-5243.095 -38.6)" fill="#ffebf2"/>
    <path id="Path_256" data-name="Path 256" d="M6355.136,733.8c-207.734,50.879-350.293-52.333-346.22,127.925s-492.854,63.962-468.416,220.961-301.415,633.809-16.293,482.625,118.123,226.776,448.05,75.592S6241.086,1204.8,6241.086,1204.8s272.9,453.551,191.439,0S6774.673,948.95,6774.673,948.95s521.366-325.627,65.169-290.738C6402.808,691.635,6524.9,689.75,6355.136,733.8,6347.874,735.688,6363.861,731.667,6355.136,733.8Z" transform="translate(-4622.577 1175.095) rotate(-9)" fill="rgba(108,99,255,0.55)"/>
    <path id="Path_207-2" data-name="Path 207" d="M5707.7,887.784s351.552,386.344,243.935,508.4-516.568,173.5-803.545-60.524-975.729,177.536-1076.174-173.5,172.189-464.016,172.189-464.016S5305.931,68.7,4875.463,597.27,5707.7,887.784,5707.7,887.784Z" transform="translate(-3576.095 -748.6)" fill="#ffebf2"/>
    <path id="Path_348" data-name="Path 348" d="M9952.285,612.4c-114.615,44.759-143.9,58.563-127.164,135.53s-23.425,168.995,56.89,152.263,207.479,35.137,172.341,103.739-254.329,130.511-102.066,212.5,456.789,165.648,441.729,11.713,108.759-327.95,108.759-327.95l-41.83-177.361-177.361-153.936S10066.9,567.638,9952.285,612.4Z" transform="translate(-8146 -833)" fill="rgba(255,172,172,0.8)"/>
    <g id="Group_11" data-name="Group 11" transform="translate(46.825 347)">
      <path id="Path_209" data-name="Path 209" d="M976.337,535.072c-9.525,22.905-29.453,43.595-50.845,63.188Q897.284,624.1,865.147,648.2q-8.906,6.69-18.1,13.213l-4.257,3q-5.661,4.006-11.515,7.936l-.468.318q-5.678,3.864-11.457,7.652c-12.6,8.279-25.924,16.5-40.651,23.307-5.018,2.325-10.194,4.491-15.555,6.431q-4.349,1.58-8.881,2.96c-4.951,1.505-10.035,2.818-15.346,3.9-.886.184-1.781.36-2.676.527-5.436,1.02-10.938,1.765-16.5,2.275-20.38,1.865-41.429.5-61.842-2.693-10.2-1.6-20.246-3.654-29.963-6-1.2-.284-2.383-.577-3.579-.836-33.091-8.279-64.159-19.518-97.484-27.421q-17.227-4.089-35.123-6.941-8.731-1.388-17.562-2.509c-13.857-1.723-27.889-2.877-41.981-3.462-19-.836-38.619-.477-56.7,2.843q-3.613.661-7.133,1.489-4.466,1.045-8.764,2.383a156.015,156.015,0,0,0-22.487,9.258c-1.43.7-2.843,1.413-4.257,2.132h0c-4.432,2.258-8.806,4.566-13.247,6.807a167.19,167.19,0,0,1-24.871,10.554,131.676,131.676,0,0,1-14.284,3.646,210.47,210.47,0,0,1-40.007,3.638c-6.581,0-13.171-.142-19.686-.485h-.2c-2.224-.117-4.457-.251-6.69-.418-10.169-.694-20.3-1.764-30.29-3.228-34.212-5.018-66.659-14.5-92.759-28.968C55.388,659.877,32.876,630.6,36.255,601.347c2.425-21.074,17.486-40.643,31.778-59.8,26.585-35.675,51.489-72.162,64.593-110.621,10.629-31.218,13.8-64.225,38.259-92.282a128.233,128.233,0,0,1,29.52-24.361,188.5,188.5,0,0,1,27.329-13.815,236.226,236.226,0,0,1,32.941-10.746,262.173,262.173,0,0,1,29.537-5.553c5.4-.7,10.871-1.246,16.374-1.614q6.356-.443,12.77-.56h.661q3.922-.075,7.844,0a365.5,365.5,0,0,1,56.866,5.344c11.758,1.965,23.415,4.374,34.831,7.025q10.219,2.367,20.254,4.959c2.041.527,4.081,1.062,6.1,1.606,47.6,12.753,89.481,30.365,135.342,44.816.234.075.46.151.694.209h0a282.53,282.53,0,0,0,28.634,7.192q10.65,2.132,21.743,3.73c11.306,1.672,22.855,2.994,34.488,4.131l2.567.251c17.068,1.673,34.287,2.919,51.012,4.374,5.937.518,11.825,1.054,17.628,1.673q5.519.552,10.938,1.171c2.592.3,5.193.6,7.794.92s5.352.652,8.028,1c1.739.217,3.471.443,5.21.686,10.537,1.4,21.049,2.96,31.444,4.75,6.322,1.087,12.611,2.258,18.824,3.521q6.749,1.372,13.38,2.893,4.917,1.112,9.751,2.342c26.184,6.581,50.686,15.212,71.8,26.861C970.023,441.619,994.559,491.269,976.337,535.072Z" transform="translate(-32.993 -124.406)" fill="#ff2370" opacity="0.1"/>
      <ellipse id="Ellipse_25" data-name="Ellipse 25" cx="18.088" cy="18.088" rx="18.088" ry="18.088" transform="translate(190.134 39.422)" fill="red" opacity="0.1"/>
      <ellipse id="Ellipse_26" data-name="Ellipse 26" cx="18.088" cy="18.088" rx="18.088" ry="18.088" transform="translate(559.856)" fill="#ff1c1c" opacity="0.1"/>
      <ellipse id="Ellipse_27" data-name="Ellipse 27" cx="18.088" cy="18.088" rx="18.088" ry="18.088" transform="translate(779.084 40.509)" fill="#ff2323" opacity="0.1"/>
      <ellipse id="Ellipse_28" data-name="Ellipse 28" cx="30.315" cy="30.315" rx="30.315" ry="30.315" transform="translate(0 70.957)" fill="#ff347b" opacity="0.1"/>
      <ellipse id="Ellipse_29" data-name="Ellipse 29" cx="30.315" cy="30.315" rx="30.315" ry="30.315" transform="translate(29.061 220.649)" fill="#d1374b" opacity="0.1"/>
      <ellipse id="Ellipse_30" data-name="Ellipse 30" cx="30.315" cy="30.315" rx="30.315" ry="30.315" transform="translate(842.682 165.548)" fill="#ff6363" opacity="0.1"/>
      <path id="Path_210" data-name="Path 210" d="M379.444,328.153a32.619,32.619,0,0,1-.443,7.61c-1.673,7.769-8.747,13.1-15.6,17.152s-14.375,7.878-18.448,14.71c-4.909,8.254-3.345,19.351,2.417,27.062s14.894,12.3,24.294,14.217c17.143,3.537,35.918-1.43,48.771-13.305s19.3-30.432,16.148-47.667c-6.974.978-13.188-5.176-15.446-11.85s-1.79-13.907-2.668-20.907a7.175,7.175,0,0,0-1.037-3.345c-.978-1.355-2.71-1.907-4.324-2.35-8.062-2.216-21.626-7.066-29.98-5.21C375.605,305.992,379.318,321.83,379.444,328.153Z" transform="translate(-83.112 -127.992)" fill="#be6f72"/>
      <path id="Path_211" data-name="Path 211" d="M379.444,328.153a32.619,32.619,0,0,1-.443,7.61c-1.673,7.769-8.747,13.1-15.6,17.152s-14.375,7.878-18.448,14.71c-4.909,8.254-3.345,19.351,2.417,27.062s14.894,12.3,24.294,14.217c17.143,3.537,35.918-1.43,48.771-13.305s19.3-30.432,16.148-47.667c-6.974.978-13.188-5.176-15.446-11.85s-1.79-13.907-2.668-20.907a7.175,7.175,0,0,0-1.037-3.345c-.978-1.355-2.71-1.907-4.324-2.35-8.062-2.216-21.626-7.066-29.98-5.21C375.605,305.992,379.318,321.83,379.444,328.153Z" transform="translate(-83.112 -127.992)" opacity="0.1"/>
      <path id="Path_212" data-name="Path 212" d="M367.377,768.908a167.217,167.217,0,0,1-24.871,10.554,131.685,131.685,0,0,1-14.283,3.646,89.9,89.9,0,0,1,1.045-19.234,102.381,102.381,0,0,0,1.865-10.98,28.8,28.8,0,0,0-3.3-15.421c9.316-1.271,18.164-3.345,27.522-2.735l.594.042a10.436,10.436,0,0,1,3.261.61,8.807,8.807,0,0,1,3.537,3.111,21.426,21.426,0,0,1,1.33,2.049c2.643,4.566,3.646,9.835,3.855,15.262a101.517,101.517,0,0,1-.552,13.1Z" transform="translate(-80.788 -198.524)" fill="#be6f72"/>
      <path id="Path_213" data-name="Path 213" d="M427.177,750.585q-4.466,1.045-8.764,2.383a156.024,156.024,0,0,0-22.487,9.257,33.184,33.184,0,0,1-.686-6.924,38.669,38.669,0,0,1,29.562-6.08,3.9,3.9,0,0,1,1.873.753A2.507,2.507,0,0,1,427.177,750.585Z" transform="translate(-91.825 -200.789)" fill="#be6f72"/>
      <path id="Path_214" data-name="Path 214" d="M426.955,680.982a64.216,64.216,0,0,1-3.345,16.1c-2.1,5.519-5.511,10.871-5.076,16.767.192,2.559,1.062,5.335,1.188,7.869q-3.613.661-7.133,1.489-4.466,1.045-8.764,2.383a156.048,156.048,0,0,0-22.487,9.258c-1.43.7-2.843,1.413-4.257,2.133h0c-.585-.075-1.162-.167-1.748-.276-4.181-.761-8.58-2.634-10.947-5.979a9.6,9.6,0,0,1-1.263-2.509c-1.363-4.073.059-9.149-2.776-12.377l-.134.117-.1.067a28.086,28.086,0,0,1-5.085,3.663h0a34.078,34.078,0,0,1-27.6,2.659,30.249,30.249,0,0,1-5.176-2.325c-3.83-2.183-7.526-5.854-7.225-10.236.167-2.442,1.564-4.783,1.188-7.2-.276-1.731-1.413-3.17-2.266-4.7-5.595-10.035,1.079-22.939-2.434-33.844-.084-.259-.176-.518-.268-.769-.259-.711-.552-1.4-.836-2.082-.719-1.6-1.522-3.169-2.158-4.809a28.017,28.017,0,0,1-1.254-4.24,53.07,53.07,0,0,1-.836-12.728c0-11.231,2.007-22.73,4.867-33.551.51-1.923,1.079-4.641,1.831-7.6h0a58.2,58.2,0,0,1,2.96-9.132c1.673-3.847,3.947-6.916,7.058-7.643,4.683-1.1,11.842,1.221,16.592,1.79l18.774,2.241L395.787,590c6.481.778,13.288,1.673,18.632,5.319.351.242.694.493,1.037.761a21.2,21.2,0,0,1,3.763,3.83c.385.493.753,1.012,1.1,1.539a34.8,34.8,0,0,1,3.094,5.9c4.658,11.189,4.767,23.675,4.8,35.792C428.218,655.794,428.259,668.43,426.955,680.982Z" transform="translate(-77.228 -173.401)" fill="#3f3d56"/>
      <path id="Path_215" data-name="Path 215" d="M363.068,734.179c-1.129-4.349-3.512-10.646-3.864-12.36a156.858,156.858,0,0,1-2.559-17.411c-.928-10.42-2.6-25.088,1.079-35,3.454,1.84,6.489,7.05,8.087,10.6,5.787,12.887-.728,28.709,4.708,41.747a6.873,6.873,0,0,1,.744,2.509,6.071,6.071,0,0,1-1.154,3.078l-1.831,3.044Z" transform="translate(-85.31 -187.845)" opacity="0.1"/>
      <path id="Path_216" data-name="Path 216" d="M503.513,255.315c6.155-10.035,14.584-19.9,14.058-31.636-.192-4.181-1.564-8.271-2.609-12.368a78.91,78.91,0,0,1-.577-36.2,40.885,40.885,0,0,1,29.57,6.623c2.735,1.89,5.327,4.24,6.531,7.342,1.112,2.86.928,6.046.727,9.107-.46,7.033-1.087,14.534-5.419,20.07-1.346,1.731-3,3.195-4.315,4.942a32.006,32.006,0,0,0-4.131,8.555l-14.216,38.677c-7.175,19.493-14.952,39.882-30.758,53.371-.385.326-11.708-15.755-12.644-17.369-3.788-6.615-2.133-9.408,2.45-14.944C491.22,280.537,496.128,267.332,503.513,255.315Z" transform="translate(-105.315 -106.827)" fill="#be6f72"/>
      <path id="Path_217" data-name="Path 217" d="M303.1,665.33a64.242,64.242,0,0,1-.728,8.622c-.151,1.054-.326,2.1-.535,3.144-2.852,14.886-9.952,29.044-14.919,43.544-6.548,19.142-9.425,35.75-11.708,54.759-6.581,0-13.171-.142-19.686-.485h-.2c-2.225-.117-4.457-.251-6.69-.418,2.015-17.729-1.672-36.328,1.932-54.073,1.455-7.142,3.939-14.074,5.436-21.183a59.966,59.966,0,0,0,1.045-6.339,17,17,0,0,1,1.229-5.946,4.4,4.4,0,0,1,.284-.51A14.326,14.326,0,0,1,261.5,683.1a73.45,73.45,0,0,1,36.01-17.169C299.408,665.673,301.256,665.455,303.1,665.33Z" transform="translate(-67.82 -187.177)" fill="#fbbebe"/>
      <path id="Path_218" data-name="Path 218" d="M303.1,665.33a64.242,64.242,0,0,1-.728,8.622c-.151,1.054-.326,2.1-.535,3.144-2.852,14.886-9.952,29.044-14.919,43.544-6.548,19.142-9.425,35.75-11.708,54.759-6.581,0-13.171-.142-19.686-.485h-.2c-2.225-.117-4.457-.251-6.69-.418,2.015-17.729-1.672-36.328,1.932-54.073,1.455-7.142,3.939-14.074,5.436-21.183a59.966,59.966,0,0,0,1.045-6.339,17,17,0,0,1,1.229-5.946,4.4,4.4,0,0,1,.284-.51A14.326,14.326,0,0,1,261.5,683.1a73.45,73.45,0,0,1,36.01-17.169C299.408,665.673,301.256,665.455,303.1,665.33Z" transform="translate(-67.82 -187.177)" opacity="0.1"/>
      <path id="Path_219" data-name="Path 219" d="M251.769,705.178a131.039,131.039,0,0,1-1.146,13.89c-2.233,18.824-2.651,38.468-4.181,57.577-2.224-.117-4.457-.251-6.69-.418-10.169-.694-20.3-1.765-30.29-3.228q1.154-6.456,2.325-12.912c.953-5.277,1.907-10.6,1.631-15.956-.259-5.059-1.614-9.985-2.693-14.944-2.3-10.621-3.588-22.078-7.376-32.1a41.813,41.813,0,0,0-9.249-15.053c15.672-6.155,30.733-6.506,47.567-5.854a6.029,6.029,0,0,1,3.412.836,5.77,5.77,0,0,1,1.714,2.592A64.868,64.868,0,0,1,251.5,698.7,62.613,62.613,0,0,1,251.769,705.178Z" transform="translate(-58.892 -188.916)" fill="#fbbebe"/>
      <circle id="Ellipse_31" data-name="Ellipse 31" cx="32.614" cy="32.614" r="32.614" transform="translate(286.497 130.617)" fill="#be6f72"/>
      <path id="Path_220" data-name="Path 220" d="M404.478,376.3c4.181-7.133,7.844-16.04,15.889-18.022,4.541-1.129,9.266.41,13.69,1.923a6.69,6.69,0,0,1,3.345,1.94,6.573,6.573,0,0,1,1.012,3.462,226.685,226.685,0,0,1-.142,44.322c-1.062,10.428-2.852,20.806-3.169,31.285-.443,14.526,1.948,29.052,1.162,43.561-.594,11-3,21.8-5.394,32.548l-10.035,44.991a7.668,7.668,0,0,1-1.614,3.805,7.526,7.526,0,0,1-2.96,1.673,110.186,110.186,0,0,1-89.171-6.983c-3.621-1.99-7.234-4.29-9.592-7.685-3.345-4.817-3.654-11.189-2.567-16.96s3.437-11.214,5.018-16.876c2.442-8.781,3.019-17.946,3.571-27.045.736-11.975,1.472-24.026.192-35.96-.878-8.22-2.71-16.316-4.089-24.469a269.868,269.868,0,0,1-3.529-37.155c-.209-7.434.134-15.688,5.277-21.049,2.509-2.609,5.854-4.181,9.258-5.452,5.712-2.107,12.092-3.345,17.863-1.422s10.42,7.978,9.057,13.907c-.627,2.751-2.408,5.16-2.843,7.953-.577,3.7,1.38,7.418,4.181,9.918C373.954,412.121,396.96,389.207,404.478,376.3Z" transform="translate(-78.584 -136.838)" fill="#e3e8f4"/>
      <path id="Path_221" data-name="Path 221" d="M418.53,334.033a24.662,24.662,0,0,1,14.292-.836c3.019.719,6.28,1.99,9.065.644,1.012-.485,1.848-1.279,2.868-1.731,2.76-1.213,6.339.276,8.781-1.489,1.539-1.112,2.04-3.136,2.559-4.976A44.615,44.615,0,0,1,470.838,303.3c-.878,6.414-1.514,13.715,2.726,18.615a18.588,18.588,0,0,0,7.384,4.708c3.939,1.564,8.262,2.6,12.419,1.748s8.045-4,8.706-8.187c-.142,6.3-6.138,10.7-7.819,16.775-.636,2.275-.577,4.691-1.02,7.016-1.129,5.938-5.369,10.7-9.073,15.488a110.186,110.186,0,0,0-21.91,52.869,25.509,25.509,0,0,1-1.422,6.69,42.079,42.079,0,0,1-2.776,4.783c-6.13,10.353-4.24,23.416-2.158,35.24,3.253,18.523,6.5,36.67,11.766,54.725.9,3.086,1.923,6.306,4.223,8.555-.728,7.3-8.1,10.629-14.718,13.782a72.2,72.2,0,0,0-17.9,12.117c-1.907,1.756-3.788,3.73-4.482,6.23-.652,2.35-.184,4.934-1.02,7.217s-4.181,3.922-5.653,2c-1.84-6.883,1.3-14.083,1.162-21.208-.1-4.809-1.673-9.483-1.9-14.292-.217-5.444,1.388-10.788,3.094-15.956,4.75-14.392,10.487-28.651,12.134-43.712s-1.43-31.51-12.117-42.257c-12.686-12.812-19.728-30.181-33.325-41.947-2.158-1.865-4.6-4.181-4.24-7.008a7.8,7.8,0,0,1,1.6-3.4c4.666-6.59,10.872-11.967,15.889-18.272S419.441,342.061,418.53,334.033Z" transform="translate(-91.44 -127.901)" fill="#3f3d56"/>
      <path id="Path_222" data-name="Path 222" d="M359.3,355.82a24.449,24.449,0,0,1-2.383,2.709,7.862,7.862,0,0,1-3.755,1.162,121.4,121.4,0,0,1-14.86,1.33c-4.181,0-8.522-.368-12.544.778-5.611,1.589-10.094,6.021-12.9,11.122s-4.139,10.871-5.218,16.617a222.229,222.229,0,0,0-3.8,38.376A100.93,100.93,0,0,0,322.1,408.948c4.014-5.444,7.652-11.465,13.38-15.1,2.634-1.673,5.595-2.776,8.246-4.407,5.528-3.4,9.358-8.906,13.037-14.217,2.709-3.939,10.545-11.632,11.164-16.349C368.457,354.365,362.227,352.166,359.3,355.82Z" transform="translate(-76.859 -136.2)" fill="#3f3d56"/>
      <path id="Path_223" data-name="Path 223" d="M397.547,256.577a26.443,26.443,0,0,1,2.96,2.066c5.678,3.964,13.28,3.228,20.146,2.325a15.121,15.121,0,0,0,6.08-1.673c2.9-1.79,4.265-5.469,3.981-8.873a17.664,17.664,0,0,0-4.089-9.2,33.091,33.091,0,0,0-22.872-12.477,14.718,14.718,0,0,0-6.849.728c-2.7,1.112-4.733,3.4-7.225,4.934-7.351,4.516-18.674,2.509-23.416,9.717-3.471,5.319-1,12.544-2.634,18.657-1.221,4.566-4.742,8.722-4.064,13.38.376,2.509,1.948,4.7,3.2,6.941a30.674,30.674,0,0,1,3.838,16.918c3.22,2.275,7.71-1.263,8.605-5.093s-.134-7.911.627-11.775c1.346-6.782,7.334-11.758,10.035-17.98C387.812,260.716,390.973,253.19,397.547,256.577Z" transform="translate(-85.97 -115.674)" fill="#3f3d56"/>
      <path id="Path_224" data-name="Path 224" d="M303.4,345.625c-.251,1.522-.41,3.2.435,4.491,1.673,2.509,5.5,1.606,8.513,1.982,4.691.577,8.154,5.018,9.065,9.684s-.176,9.416-1.363,14q-4.031,15.58-9.6,30.716c-9.985-1.179-20.5-5.018-25.8-13.539-4.817-7.752-4.324-17.629-7.384-26.225-2.149-6.055-6-11.323-9.818-16.491,6.13.769,10.512-6.239,10.871-12.41s-1.581-12.435-.259-18.465c.309-1.43,24.469,3.078,26.819,4.708C311.672,328.782,304.472,339.085,303.4,345.625Z" transform="translate(-70.902 -130.487)" fill="#fbbebe"/>
      <path id="Path_225" data-name="Path 225" d="M303.4,345.625c-.251,1.522-.41,3.2.435,4.491,1.673,2.509,5.5,1.606,8.513,1.982,4.691.577,8.154,5.018,9.065,9.684s-.176,9.416-1.363,14q-4.031,15.58-9.6,30.716c-9.985-1.179-20.5-5.018-25.8-13.539-4.817-7.752-4.324-17.629-7.384-26.225-2.149-6.055-6-11.323-9.818-16.491,6.13.769,10.512-6.239,10.871-12.41s-1.581-12.435-.259-18.465c.309-1.43,24.469,3.078,26.819,4.708C311.672,328.782,304.472,339.085,303.4,345.625Z" transform="translate(-70.902 -130.487)" opacity="0.1"/>
      <circle id="Ellipse_32" data-name="Ellipse 32" cx="32.614" cy="32.614" r="32.614" transform="translate(194.507 139.816)" fill="#fbbebe"/>
      <path id="Path_226" data-name="Path 226" d="M276.277,328.869c1.188-1.857-.836-4.449.092-6.448.552-1.2,1.948-1.723,3.027-2.509a11.28,11.28,0,0,0,3.153-4.089,47.533,47.533,0,0,0,4.349-31.736c-.769-3.613-1.455-8.413,1.848-10.035a6,6,0,0,1,2.919-.5c5.954.192,11.708,4.181,17.486,2.768a10.035,10.035,0,0,0,7.359-8.756c.376-5.4-3.671-10.035-7.652-13.673-7.167-6.59-18.088-8.053-27.823-8.212l-18.105-.3c-5.8-.1-12.293.084-16.324,4.24-5.8,5.979-2.885,15.764-3.721,24.051a25.088,25.088,0,0,1-9.2,16.851c-3.755,2.994-8.923,5.854-8.856,10.637a17.3,17.3,0,0,0,1.179,4.775c1.848,6.255.084,13.171-3.462,18.649s-8.731,9.692-14.108,13.38c-2.877,1.965-5.854,3.855-8.129,6.523a19.235,19.235,0,0,0-4.24,10.813,14.217,14.217,0,0,0,1.773,8.722c3.537,5.653,12.026,6.481,17.838,3.2s9.358-9.483,11.708-15.722c1.4-3.7,2.835-7.945,6.431-9.609,4.549-2.116,9.868,1.229,12.828,5.285s4.783,9.007,8.572,12.3c5.938,5.168,16.04,4.332,21.057-1.739,3.588-4.357,4.382-10.386,4.181-16.031a23.357,23.357,0,0,0-4.181-12.837Z" transform="translate(-59.199 -118.414)" fill="#3f3d56"/>
      <path id="Path_227" data-name="Path 227" d="M278.748,386.768c-3.721.794-7.61-.962-10.378-3.588s-4.633-6.013-6.573-9.291a163.578,163.578,0,0,0-16.851-23.365c-5.486-6.331-13.121-12.761-21.266-10.8a20.179,20.179,0,0,0-7.426,3.972,54.14,54.14,0,0,0-20.213,48.32c.636,5.327,2.082,10.537,2.684,15.889a101.846,101.846,0,0,1,.351,13.272c-.226,13.481-.686,27.739-7.953,39.1-11.264,17.562-17.294,38.535-25.565,57.7-4.466,10.361-7.142,21.392-9.768,32.364q-2.333,9.768-4.658,19.527l-10.119,42.566c-1.045,4.39-2.091,8.99-.987,13.38,1.673,6.556,7.836,11.139,14.334,13s13.38,1.547,20.129,1.606c12.912.125,25.924,1.731,38.042,6.213,3.462,1.28,6.916,2.81,10.6,3.111a24.673,24.673,0,0,0,10.813-2c9.425-3.646,17.5-10.035,26.184-15.195a103.464,103.464,0,0,1,17.06-8.254c2.977-1.112,6.172-2.166,8.22-4.6a14.857,14.857,0,0,0,2.751-6.565c2.827-13.18.928-26.836,0-40.283s-8.965-27.655-2.316-39.38c1.338-2.367,2.935-4.641,3.621-7.267.9-3.429.142-7.117.9-10.579.56-2.559,1.907-4.859,2.827-7.309C294.8,504,295.022,499.3,295,494.689a149.486,149.486,0,0,0-3.178-30.106c-2.634-12.544,6.08-24.946,11.072-36.8,1.79-4.24,4.323-8.246,5.068-12.787.669-4.1-.192-8.271-.836-12.377a108.3,108.3,0,0,1-1.171-19.234c.159-5.77.769-11.649-.61-17.261s-5.319-11.055-10.98-12.21a4.482,4.482,0,0,0-3.78.594,4.892,4.892,0,0,0-1.33,2.342c-1.84,5.636-1.48,11.708-2.509,17.562S284.518,385.531,278.748,386.768Z" transform="translate(-49.962 -133.806)" fill="#f86d70"/>
      <path id="Path_228" data-name="Path 228" d="M208.41,437.96c.343-2.316-.736-5.394-3.077-5.31-2.158.084-3.119,2.785-3.111,4.951s.3,4.65-1.229,6.172c-1.355,1.346-3.6,1.3-5.168,2.4a4.248,4.248,0,0,0-1.781,3.487c0,1.163.527,2.275.56,3.437s-.744,2.509-1.9,2.434a5.243,5.243,0,0,0,.761,6.356c.6.585,1.388,1.087,1.589,1.907a4.6,4.6,0,0,1-.134,1.714c-.351,2.3,1.238,4.875,3.554,5.126-1.3.928-1.037,3.1.151,4.181a6.54,6.54,0,0,0,4.491,1.288,27.3,27.3,0,0,0,10.545-2.183,6.288,6.288,0,0,0,2.91-2.007,2.509,2.509,0,0,0-.243-3.245c1.622.268,3.571.418,4.633-.836,1.48-1.756-.109-4.357-1.673-6.055a3.345,3.345,0,0,0,1.555-5.954c-.535-.393-1.263-.736-1.338-1.4s.485-1.087.719-1.673c.535-1.313-.686-2.651-1.865-3.445-2.793-1.857-6.908-1.823-9.391-3.7S208.051,440.469,208.41,437.96Z" transform="translate(-58.543 -149.08)" fill="#be6f72"/>
      <path id="Path_229" data-name="Path 229" d="M414.623,287.259a39.6,39.6,0,0,1-6.1.142,1.33,1.33,0,0,0-1.463,1.154l-3.889,29.169a11.841,11.841,0,0,1-2.509,5.779,12.594,12.594,0,0,0-2.835,9.625v49.549s-.251,6.607,4.825,6.607a73.384,73.384,0,0,0,18.3,0s4.064-.769,4.064-6.866V333.63a11.934,11.934,0,0,0-2.509-9.7,12.142,12.142,0,0,1-2.434-5.745l-4.039-29.779A1.329,1.329,0,0,0,414.623,287.259Z" transform="translate(-92.233 -125.274)" fill="#3f3d56"/>
      <path id="Path_230" data-name="Path 230" d="M414.623,287.259a39.6,39.6,0,0,1-6.1.142,1.33,1.33,0,0,0-1.463,1.154l-3.889,29.169a11.841,11.841,0,0,1-2.509,5.779,12.594,12.594,0,0,0-2.835,9.625v49.549s-.251,6.607,4.825,6.607a73.384,73.384,0,0,0,18.3,0s4.064-.769,4.064-6.866V333.63a11.934,11.934,0,0,0-2.509-9.7,12.142,12.142,0,0,1-2.434-5.745l-4.039-29.779A1.329,1.329,0,0,0,414.623,287.259Z" transform="translate(-92.233 -125.274)" opacity="0.1"/>
      <rect id="Rectangle_29" data-name="Rectangle 29" width="24.645" height="41.671" rx="11.05" transform="translate(307.011 208.741)" fill="#fd0002"/>
      <path id="Path_231" data-name="Path 231" d="M515.722,136.51a38.532,38.532,0,0,1-5.569,2.509,1.338,1.338,0,0,0-.912,1.622l7.644,28.433a11.808,11.808,0,0,1-.067,6.289,12.544,12.544,0,0,0,1.087,9.977l19.083,45.727s2.308,6.188,7,4.232a72.87,72.87,0,0,0,16.893-7.075s3.454-2.275,1.112-7.894L543.2,175.3a11.967,11.967,0,0,0-6.046-7.995,12.167,12.167,0,0,1-4.457-4.357L517.5,137.029A1.338,1.338,0,0,0,515.722,136.51Z" transform="translate(-110.484 -100.567)" fill="#3f3d56"/>
      <rect id="Rectangle_30" data-name="Rectangle 30" width="24.645" height="41.671" rx="11.05" transform="translate(409.064 85.023) rotate(-22.65)" fill="#fe010b"/>
      <path id="Path_232" data-name="Path 232" d="M234.211,345.39c-8.99,3.7-12.544,15.228-10.437,24.712s8.455,17.386,14.643,24.9l17.344,21.158c4.792,5.854,10.035,12.017,17.344,14.058,10.687,2.985,21.375-3.822,30.616-9.977a461.208,461.208,0,0,1,87.942-45.794c3.019-1.171,6.113-2.358,8.6-4.449,5.151-4.332,6.6-12.318,3.73-18.4a18.419,18.419,0,0,0-16.282-10.085,22,22,0,0,0-17.327,8.9c-1.932,2.567-3.345,5.5-5.21,8.112-4.717,6.556-12.076,10.612-19.276,14.275a492.272,492.272,0,0,1-53.521,23.416c-3.345,1.221-7.117,2.383-10.269.769-1.932-1-3.236-2.877-4.407-4.717a117.124,117.124,0,0,1-12.628-26.911c-2.283-7.108-4.131-14.852-9.617-19.9-7.777-7.158-21.86-5.444-27.689,3.345,0,0-6.832,9.993-2.651,14.175S234.211,345.39,234.211,345.39Z" transform="translate(-63.654 -134.074)" fill="#fbbebe"/>
      <path id="Path_233" data-name="Path 233" d="M794.359,302.467c1.221,3.253,1.254,6.816,1.079,10.286-.217,4.232-1.279,9.2-5.21,10.813-2.559,1.029-5.72.251-7.995,1.806-2.76,1.873-2.626,5.9-2.2,9.2,1.179,9.057,2.509,18.448,7.443,26.108a55.453,55.453,0,0,0,9.876,10.8c7.25,6.54,15.2,12.929,24.729,15.111a10.345,10.345,0,0,0,4.767.2,9.869,9.869,0,0,0,4.123-2.509c5.519-5.068,8.363-12.3,12.042-18.858,2.6-4.691,5.7-9.2,7.167-14.367a25.088,25.088,0,0,0-7.677-25.314c-1.631-1.4-3.437-2.567-5.018-4.014-4.131-3.746-6.54-9.124-7.526-14.61a63.934,63.934,0,0,1-.36-16.725,91,91,0,0,0-24.829,2c-3.629.728-8.739,1.062-12.026,2.793C789.049,297.149,793.347,299.666,794.359,302.467Z" transform="translate(-154.79 -125.756)" fill="#fbbebe"/>
      <path id="Path_234" data-name="Path 234" d="M794.359,302.467c1.221,3.253,1.254,6.816,1.079,10.286-.217,4.232-1.279,9.2-5.21,10.813-2.559,1.029-5.72.251-7.995,1.806-2.76,1.873-2.626,5.9-2.2,9.2,1.179,9.057,2.509,18.448,7.443,26.108a55.453,55.453,0,0,0,9.876,10.8c7.25,6.54,15.2,12.929,24.729,15.111a10.345,10.345,0,0,0,4.767.2,9.869,9.869,0,0,0,4.123-2.509c5.519-5.068,8.363-12.3,12.042-18.858,2.6-4.691,5.7-9.2,7.167-14.367a25.088,25.088,0,0,0-7.677-25.314c-1.631-1.4-3.437-2.567-5.018-4.014-4.131-3.746-6.54-9.124-7.526-14.61a63.934,63.934,0,0,1-.36-16.725,91,91,0,0,0-24.829,2c-3.629.728-8.739,1.062-12.026,2.793C789.049,297.149,793.347,299.666,794.359,302.467Z" transform="translate(-154.79 -125.756)" opacity="0.1"/>
      <path id="Path_235" data-name="Path 235" d="M712.811,302.9c-13.581-4.658-20.07-22.855-34.287-24.9-2.241-.326-4.541-.2-6.74-.719-8.187-1.94-11.708-11.407-14.074-19.477-7.978-26.9-18.4-53.228-33.2-77.079-6.247-10.035-16.123-18.281-20.631-29.269-1.037-2.509-1.564-5.369-3.429-7.351s-5.854-2.266-6.866.259a5.852,5.852,0,0,0-.184,2.768l.978,10.411-17.01-1.53a9.934,9.934,0,0,0-4.708.335,7.987,7.987,0,0,0-3.7,3.855c-5.754,10.813.376,24.979,10.529,31.82,11.858,7.986,28.793,9.2,36.67,21.116,4.683,7.092,4.775,16.215,7.861,24.135,1.472,3.788,3.621,7.267,5.335,10.938,3.27,7,4.942,14.61,7.476,21.9,3.63,10.428,9.007,20.146,14.367,29.8,4.131,7.459,8.363,15.053,14.718,20.756,4.181,3.746,9.1,6.523,14.016,9.2,12.093,6.607,26.351,12.962,39.163,7.894C719.827,326.354,716.959,313.618,712.811,302.9Z" transform="translate(-119.905 -101.582)" fill="#fbbebe"/>
      <path id="Path_236" data-name="Path 236" d="M782.352,757.588c-1.029,10.913-7.652,20.8-9.2,31.3-10.2-1.6-20.246-3.654-29.964-6-1.2-.284-2.383-.577-3.579-.836,5.5-15.053.711-31.912,2.166-47.943.142-1.539.343-3.078.611-4.6,12.6-4.3,23.984-10.035,37.2-8.363.259,2.676.527,5.36.786,8.037q.794,8.02,1.572,16.023A64.964,64.964,0,0,1,782.352,757.588Z" transform="translate(-148.21 -196.268)" fill="#fbbebe"/>
      <path id="Path_237" data-name="Path 237" d="M886.291,784.828c-4.951,1.505-10.035,2.818-15.346,3.9-.886.184-1.781.36-2.676.527-5.436,1.02-10.938,1.764-16.5,2.275-.569-11.624-8.363-22.312-9.5-34.245a50.317,50.317,0,0,1,.092-8.906c.1-1.171.217-2.341.326-3.512l2.358-24.059a37.1,37.1,0,0,1,5.661-.276c10.872.259,20.765,4.968,31.536,8.639a75.177,75.177,0,0,1,.836,15.354c-.41,13.063-2.509,26.284,2.342,38.268C885.7,783.465,886,784.142,886.291,784.828Z" transform="translate(-164.993 -196.212)" fill="#fbbebe"/>
      <path id="Path_238" data-name="Path 238" d="M724.1,577.95c1.464,11.407-4.365,22.328-6.891,33.543-1.673,7.418-1.9,15.053-2.124,22.663l-1.321,45.585c-.134,4.558-.251,9.2,1.137,13.573,2.793,8.764,11.4,14.685,20.355,16.792s18.323,1.037,27.446-.167c4.474-.594,9.14-1.288,12.845-3.872,5.093-3.554,7.317-9.885,9.241-15.789l5.427-16.667c6.247,14.066,3.6,29.445,7.351,44.372a8.6,8.6,0,0,0,1.673,3.788c1.581,1.756,4.181,2.032,6.548,2.2,16.391,1.154,33.008,2.3,49.131-.836,4.432-.836,9.057-2.191,12.117-5.519,3.563-3.872,4.181-9.567,4.139-14.827-.226-18.072-6.757-35.508-8.212-53.521-.627-7.719-.318-15.479-.594-23.223a155.491,155.491,0,0,0-1.631-17.394,23.368,23.368,0,0,0-2.141-7.61c-2.509-4.683-7.719-7.225-12.653-9.2C807.611,576.269,765.447,576.419,724.1,577.95Z" transform="translate(-143.966 -172.761)" fill="#f86d70"/>
      <ellipse id="Ellipse_33" data-name="Ellipse 33" cx="35.96" cy="35.96" rx="35.96" ry="35.96" transform="translate(615.15 108.874)" fill="#fbbebe"/>
      <path id="Path_239" data-name="Path 239" d="M826.468,338.661c-2.668,5.854-6.866,11.708-13.113,13.2-5.745,1.38-11.833-1.388-16.065-5.511s-7-9.475-9.935-14.6c-2.141-3.746-4.524-7.526-8.145-9.885-4.951-3.211-11.34-3.128-17.177-2.183s-11.633,2.634-17.561,2.25c-7.384-.493-14.911-4.181-21.877-1.723,2.258,10.1,1.447,21.208,1.188,31.561a14.213,14.213,0,0,1-.669,4.717,15.241,15.241,0,0,1-2.433,3.914l-6.69,8.622c7.175,5.369,13.38,12.377,15.889,20.982,1.413,4.9.978,10.1.928,15.2-.159,14.978,3.094,29.9,2.065,44.841-1.2,17.5-8.2,34.044-11.8,51.213a134.076,134.076,0,0,0-1.723,44.824c37.482,12.971,76.1,19.611,115.723,21.785,7,.385,14.559.443,20.3-3.579,4.775-3.345,7.451-9.073,8.363-14.844s.284-11.641-.351-17.445q-2.584-23.541-5.16-47.082c-.978-8.931-1.957-17.913-1.321-26.869a149.584,149.584,0,0,1,3.211-19.8l8.363-40.191c1.2-5.712,2.4-11.465,4.767-16.792,1.94-4.349,4.625-8.363,6.765-12.594a55.619,55.619,0,0,0,5.218-16.115,10.682,10.682,0,0,0-.067-4.934c-.895-2.743-3.629-4.39-6.18-5.737a179.539,179.539,0,0,0-49.474-17.353C828.341,329.454,828.567,334.07,826.468,338.661Z" transform="translate(-144.015 -130.489)" fill="#e3e8f4"/>
      <path id="Path_240" data-name="Path 240" d="M834.154,296.045c4.181-8.011,12-13.631,16.541-21.459a31.719,31.719,0,0,0,1.02-29.269c-1.6-3.261-3.763-6.255-5.018-9.667-1.4-3.88-1.53-8.154-3.144-11.95-2.216-5.2-7.016-8.948-12.243-11.106s-10.871-2.935-16.5-3.688l-19-2.559c-2.751-.368-5.6-.736-8.279,0s-5.168,2.919-5.385,5.695c-.259,3.287,2.626,6.347,1.957,9.575-.242,1.137-.911,2.291-.527,3.4a3.446,3.446,0,0,0,1.673,1.673c4.507,2.509,9.893,2.735,14.777,4.374s9.784,5.754,9.291,10.871c-.268,2.751-2.04,5.611-.836,8.078,1.154,2.283,4.181,2.7,6.6,3.412a17.683,17.683,0,0,1,12.168,18.816c-.351,2.509-1.254,4.909-1.438,7.426-.611,8.814.778,11.331,7.978,16.458Z" transform="translate(-155.172 -111.957)" fill="#3f3d56"/>
      <path id="Path_241" data-name="Path 241" d="M897.651,354.114a12.2,12.2,0,0,1-.895,4.875c-2.609,5.561-10.6,5.21-15.889,8.363-6.59,3.93-8.045,12.7-8.647,20.346-.686,8.655-1.154,17.436.619,25.924S878.876,430.39,886,435.366c8.672,6.03,20.463,6.239,30.365,2.567s18.172-10.771,25.347-18.532c6.807-7.359,12.9-15.563,16.558-24.9.644-1.672,1.213-3.445.694-5.118-.778-2.509-3.512-3.646-5.737-5.018-5.193-3.136-8.655-8.605-10.453-14.384s-2.1-11.925-2.158-17.988c-.067-6.3-.084-13.18-4.1-18.038s-10.972-6.222-17.311-6.172c-5.185,0-19.535.493-23.073,5.018C893.235,336.561,897.86,348.728,897.651,354.114Z" transform="translate(-169.822 -131.909)" fill="#fbbebe"/>
      <path id="Path_242" data-name="Path 242" d="M897.651,354.114a12.2,12.2,0,0,1-.895,4.875c-2.609,5.561-10.6,5.21-15.889,8.363-6.59,3.93-8.045,12.7-8.647,20.346-.686,8.655-1.154,17.436.619,25.924S878.876,430.39,886,435.366c8.672,6.03,20.463,6.239,30.365,2.567s18.172-10.771,25.347-18.532c6.807-7.359,12.9-15.563,16.558-24.9.644-1.672,1.213-3.445.694-5.118-.778-2.509-3.512-3.646-5.737-5.018-5.193-3.136-8.655-8.605-10.453-14.384s-2.1-11.925-2.158-17.988c-.067-6.3-.084-13.18-4.1-18.038s-10.972-6.222-17.311-6.172c-5.185,0-19.535.493-23.073,5.018C893.235,336.561,897.86,348.728,897.651,354.114Z" transform="translate(-155.905 -139.403)" opacity="0.1"/>
      <path id="Path_243" data-name="Path 243" d="M848.519,615.535a7.151,7.151,0,0,0,1.74,3.412,6.906,6.906,0,0,0,2.818,1.33c27.446,8.053,56.766,4.842,85.182,1.556-3.889-11.842-7.8-23.817-8.881-36.236-.895-10.244.109-20.907-3.521-30.515-1.07-2.843-63.456,10.244-69.611,11.306-3.153.543-6.782.36-9.015,2.86-2.693,3.027-2.919,10.236-3.2,14.008C843.225,594.152,845.475,605.123,848.519,615.535Z" transform="translate(-165.28 -169.06)" fill="#fbbebe"/>
      <path id="Path_244" data-name="Path 244" d="M912.407,770.426c-5.018,2.325-10.194,4.491-15.555,6.431q-4.349,1.58-8.881,2.96c-4.951,1.505-10.035,2.818-15.346,3.9q-4.541-11.515-9.09-23.039c-2.233-5.653-4.466-11.331-6.331-17.11a107.159,107.159,0,0,1-3.195-12.034,85.844,85.844,0,0,1,2.074-41.621c11.591,2.183,22.922,3.6,34.337,5.26,6.1.836,12.209,1.823,18.4,2.985q.728,6.046,1.321,12.093.9,9.333,1.48,18.665Q912.9,749.653,912.407,770.426Z" transform="translate(-166.673 -191.202)" fill="#fbbebe"/>
      <path id="Path_245" data-name="Path 245" d="M912.407,770.426c-5.018,2.325-10.194,4.491-15.555,6.431q-4.349,1.58-8.881,2.96c-4.951,1.505-10.035,2.818-15.346,3.9q-4.541-11.515-9.09-23.039c-2.233-5.653-4.466-11.331-6.331-17.11a107.159,107.159,0,0,1-3.195-12.034,85.844,85.844,0,0,1,2.074-41.621c11.591,2.183,22.922,3.6,34.337,5.26,6.1.836,12.209,1.823,18.4,2.985q.728,6.046,1.321,12.093.9,9.333,1.48,18.665Q912.9,749.653,912.407,770.426Z" transform="translate(-165.603 -189.061)" opacity="0.1"/>
      <path id="Path_246" data-name="Path 246" d="M984.2,738.008c.067,4.817-1.3,9.734-2.576,14.459-.092.335-.176.661-.259,1a13.781,13.781,0,0,1-7.384-5.536,15.815,15.815,0,0,1-1.982-4.641q-5.678,3.864-11.457,7.652c-12.6,8.279-25.924,16.5-40.651,23.307-5.018,2.325-10.194,4.491-15.555,6.431q-1.673-5.854-3.178-11.783a109.128,109.128,0,0,1-2.576-12.368,62.818,62.818,0,0,1,2.776-28.14h0l.376-1.087a61.5,61.5,0,0,1,5.477-11.532c2.082-3.345,6.205-2.785,10.412-1.673,1.907.494,3.838,1.087,5.595,1.455,10.93,2.291,22.278-.075,33.451.552A39.981,39.981,0,0,1,972.011,720c5.377,2.7,9.709,6.832,11.407,12.544a18.724,18.724,0,0,1,.552,2.509,22.205,22.205,0,0,1,.226,2.952Z" transform="translate(-174.153 -195.02)" fill="#fbbebe"/>
      <path id="Path_247" data-name="Path 247" d="M737.708,267.986c-17.269-16.725-36.9-30.9-56.975-44.155A156.473,156.473,0,0,1,665.68,213.1c-5.018-4.181-9.391-9.09-14.718-12.853s-11.917-6.347-18.314-5.11S620.563,202.5,621.5,208.9c.836,5.636,5.9,9.5,10.587,12.736,8.864,6.13,17.771,12.276,27.413,17.085a85.946,85.946,0,0,1,9.726,5.185c6,4.048,10.378,10.035,14.919,15.663a217.788,217.788,0,0,0,61.884,52.685c.284.167,10.177-21.183,9.759-23.951C754.868,281.943,742.257,272.4,737.708,267.986Z" transform="translate(-128.855 -110.14)" fill="#fbbebe"/>
      <path id="Path_248" data-name="Path 248" d="M921.739,605.46c-13.33.836-26.117,5.335-39.154,8.2s-27.2,3.981-39.3-1.673l7.359,50.251c.41,2.793.836,5.653.226,8.4-.56,2.626-2.015,5.1-1.89,7.786.192,4.248,4.181,7.234,7.936,9.2a70.956,70.956,0,0,0,35.458,8.17c-.912,3.68-2.049,7.317-2.969,11,6.146,6.6,16.2,7.041,24.971,9.132,6.69,1.581,12.962,4.323,19.518,6.255a83.313,83.313,0,0,0,24.427,3.4c5.578-.059,11.49-.836,15.822-4.315,5.327-4.29,6.983-11.582,8.137-18.323a41.681,41.681,0,0,0,.836-11.373c-.435-4.365-2.124-8.5-3.8-12.544l-11.457-27.806c-2.082-5.018-4.181-10.11-6.69-14.952C952.973,620.613,939.375,604.364,921.739,605.46Z" transform="translate(-165.184 -177.366)" fill="#3f3d56"/>
      <path id="Path_249" data-name="Path 249" d="M916.37,381.736a12.544,12.544,0,0,1,13.13-8c3.345.468,6.331,2.3,9.2,4.089l15.973,9.968a69.608,69.608,0,0,1,7.6,5.235c11.014,9.132,15.262,24.143,16.475,38.4s0,28.759,2.835,42.784c-6.74,5.586-14.217,10.311-20.957,15.889-3.529,2.919-7.1,5.854-9.776,9.609-2.124,2.952-3.638,6.331-5.854,9.2a22.128,22.128,0,0,1-14.66,8.145c3.655,2.124,5.7,6.247,6.69,10.353s1.255,8.363,2.35,12.469c1.505,5.578,4.625,10.671,5.653,16.357.719,3.922.4,7.945.661,11.925,1.3,20.6,17.47,38.6,16.424,59.208a89.786,89.786,0,0,1-21.459-11.281c-2.977-2.133-5.854-4.441-8.672-6.74l-21.3-17.269c-10.361-8.363-20.823-16.909-29.06-27.413-5.168-6.59-9.383-13.882-14.568-20.455s-11.566-12.544-19.485-15.3c-1.162,1.748-3.228,2.96-4.39,4.708a3.5,3.5,0,0,0-.485.9,3.955,3.955,0,0,0,.276,2.308,48.055,48.055,0,0,1,1.673,10.361l.527,6.289a21.424,21.424,0,0,1,0,5.018c-.794,5.377-5.778,9.55-11.156,10.386a4.851,4.851,0,0,1-2.35-.075c-1.5-.5-2.325-2.082-2.776-3.588-2.116-7.142,1.129-14.677,1.388-22.111a53.154,53.154,0,0,0-.192-5.653l-.5-7.418c-4.859-1.012-7.652-6.23-8.94-11.022-3.479-12.937-6.983-26.326-4.967-39.572.535-3.546,1.472-7.142.836-10.687-.836-4.742-4.248-8.588-6.046-13.054-5.854-14.559,6.581-30.365,5.427-45.995-.485-6.565-4.65-12.268-7.158-18.356a51.838,51.838,0,0,0-5.018-10.127c-2.559-3.654-6.013-6.581-9.366-9.525a357.715,357.715,0,0,1-29.42-28.985,21.743,21.743,0,0,1-12.669-5.8c-2.208-2.091-4.023-4.85-4.081-7.886s2.182-6.222,5.218-6.381c1.773-.092,3.429.786,5.16,1.171,5.419,1.188,10.872-2.8,13.288-7.811s2.417-10.771,2.375-16.324a15.655,15.655,0,0,1,14.493,5.076c3.738,4.064,6.172,9.132,9.115,13.8a21.384,21.384,0,0,0,4.549,5.494c4.023,3.195,9.818,3.8,13.33,7.526,1.781,1.907,2.768,4.432,4.4,6.473,4.583,5.745,12.971,6.448,19.234,10.228S849.962,358.956,856.9,361.2c2.509.836,5.243.945,7.727,1.873,5.737,2.132,9.241,8.229,10.035,14.292s-.56,12.193-1.932,18.164l-3.22,13.974c-.711,3.094-1.254,6.816,1.029,9.023a9.3,9.3,0,0,0,3.7,1.865c5.854,1.907,12.377,3.78,17.879,1.079a21.15,21.15,0,0,0,6.506-5.687C906.795,406.163,912.222,393.569,916.37,381.736Z" transform="translate(-149.613 -127.268)" fill="#6c63ff"/>
      <path id="Path_250" data-name="Path 250" d="M1021.224,722.815c-1.154,7.652-5.369,15.178-12.268,18.682a17.561,17.561,0,0,1-13.288.92,13.782,13.782,0,0,1-7.384-5.536,15.813,15.813,0,0,1-1.982-4.641,1.45,1.45,0,0,0-.058-.259,36.784,36.784,0,0,1-.778-9.006,117.471,117.471,0,0,1,.836-14.041,76.032,76.032,0,0,1,2.308-11.608c1.556-5.427,3.8-10.654,5.854-15.889,1.071-2.76,2.1-5.528,2.944-8.363h0c.51-1.672.945-3.4,1.3-5.135l.125-.627c.067-.351.125-.7.184-1.054.836-4.767,1.079-9.7,3.228-14.008,5.018-10.11,14.785-7.526,16.274,1.8a16.423,16.423,0,0,1,.193,2.183c.226,11.8-4.458,23.332-2.317,35.173a81.972,81.972,0,0,0,2.275,8.547c.753,2.584,1.43,5.2,1.949,7.853A44.633,44.633,0,0,1,1021.224,722.815Z" transform="translate(-188.46 -183.975)" fill="#fbbebe"/>
      <path id="Path_251" data-name="Path 251" d="M1024.456,567.224c.226,4.834,0,9.726.97,14.467,2.266,11.206,10.871,21.124,9.918,32.514-.234,2.776-1.263,5.762-3.688,7.133s-6.439,1.263-7.234,4.022c-.226.769-.109,1.606-.36,2.367-.527,1.622-2.509,2.317-4.181,2.275s-3.345-.594-5.076-.452c-6.063.51-8.287,8.622-13.69,11.407-3.638,1.873-8.363.836-11.365-1.932a14.154,14.154,0,0,1-4.081-11.172c.176-3.086,1.154-6.063,1.672-9.107.945-5.427.452-10.989-.042-16.474-.728-8.037-1.48-16.173-4.123-23.792-1.246-3.6-2.9-7.033-3.981-10.679-1.539-5.16-1.89-10.587-2.049-15.964-.326-11.315.452-23.415,7.209-32.514,5.076-6.824,12.352-12.368,18.1-18.682,3.6-3.956,4.633-5.193,8.6-1.84,3.27,2.751,6.69,6.548,7.058,10.278,1,9.558,0,18.958,1.79,28.692S1023.987,557.23,1024.456,567.224Z" transform="translate(-187.092 -159.593)" fill="#6c63ff"/>
      <ellipse id="Ellipse_34" data-name="Ellipse 34" cx="42.65" cy="42.65" rx="42.65" ry="42.65" transform="translate(707.976 138.143)" fill="#fbbebe"/>
      <path id="Path_252" data-name="Path 252" d="M961.6,379.077c.936-1.313,2.049-2.726,3.638-3a6.347,6.347,0,0,1,3.462.728l11.231,4.691a36.665,36.665,0,0,0,5.218-16.525c.234-3.588-.05-7.225.635-10.754,1.02-5.235,4.123-9.927,4.842-15.212.569-4.265-.46-8.555-1.079-12.812-1.907-13.146.142-26.56-.953-39.8s-6.406-27.421-18.214-33.5c-3.345-1.673-6.949-2.676-10.428-4-7.752-2.952-14.7-7.677-22.362-10.871s-16.658-4.658-24.084-.987-11.75,14-6.924,20.739c1.589,2.216,3.914,3.788,6.138,5.386,4.524,3.236,9.14,7.234,10.186,12.7,1.873,9.843-8.363,17.562-11.248,27.187a23.112,23.112,0,0,0-.276,11.532c1.246,5.7,4.29,11.089,4.182,16.926-.084,6.4-3.914,12.193-4.633,18.557-.259,2.333-.1,4.7-.393,7.025a36.255,36.255,0,0,1-2.7,8.889c-6.69,16.725-13.472,33.626-23.415,48.662a64.45,64.45,0,0,0,30.632-7.158,50.629,50.629,0,0,1-7.669,18.013,58.038,58.038,0,0,0,23.968-8.363,77.874,77.874,0,0,1-7.61,18.072c.284-.485,5.545-1.673,6.515-2.224a11.349,11.349,0,0,0,4.6-4.909c2.843-5.084,4.616-11.214,7.251-16.5a240.289,240.289,0,0,1,19.493-32.5Z" transform="translate(-171.92 -116.698)" fill="#3f3d56"/>
      <path id="Path_253" data-name="Path 253" d="M586.623,101.259a39.59,39.59,0,0,1-6.1.142,1.33,1.33,0,0,0-1.463,1.154l-3.889,29.169a11.841,11.841,0,0,1-2.509,5.779,12.594,12.594,0,0,0-2.835,9.625v49.549s-.251,6.607,4.825,6.607a73.384,73.384,0,0,0,18.3,0s4.064-.769,4.064-6.866V147.63a11.933,11.933,0,0,0-2.509-9.7,12.143,12.143,0,0,1-2.433-5.745L588.037,102.4a1.33,1.33,0,0,0-1.413-1.146Z" transform="translate(-120.396 -94.82)" fill="#3f3d56"/>
      <rect id="Rectangle_31" data-name="Rectangle 31" width="24.645" height="41.671" rx="11.05" transform="translate(450.849 53.195)" fill="#ef0000"/>
      <path id="Path_254" data-name="Path 254" d="M655.624,152.259a39.593,39.593,0,0,1-6.1.142,1.33,1.33,0,0,0-1.463,1.154l-3.889,29.169a11.843,11.843,0,0,1-2.509,5.779,12.594,12.594,0,0,0-2.835,9.625v49.549s-.251,6.607,4.825,6.607a73.382,73.382,0,0,0,18.3,0s4.064-.769,4.064-6.866V198.63a11.933,11.933,0,0,0-2.509-9.7,12.143,12.143,0,0,1-2.434-5.745l-4.039-29.779a1.33,1.33,0,0,0-1.413-1.146Z" transform="translate(-131.693 -103.17)" fill="#3f3d56"/>
      <rect id="Rectangle_32" data-name="Rectangle 32" width="24.645" height="41.671" rx="11.05" transform="translate(508.551 95.845)" fill="#fd0002"/>
    </g>
    <text id="ADHOC_Portal" data-name="ADHOC Portal" transform="translate(960 458)" fill="#b31f24" font-size="102" font-family="SegoeScript-Bold, Segoe Script" font-weight="700"><tspan x="0" y="0">ADHOC Portal</tspan></text>
  </g>
</svg>
